# xmcd
#
# Track frame offsets: 
#        150
#        15674
#        48012
#        68262
#        87297
#
# Disc length: 1543 seconds
#
# Revision: 0
# Processed by: cddbd v1.5.2PL0 Copyright (c) Steve Scherf et al.
# Submitted via: ExactAudioCopy v0.99pb5
#
DISCID=2b060505
DTITLE=Ernie and the Automatics - Live at the Opera House
DYEAR=2007
DGENRE=Chicago Blues
TTITLE0=Hong Kong Shuffle
TTITLE1=Shotgun
TTITLE2=Midnight Hour
TTITLE3=Goin Down
TTITLE4=Good Time Charlie
EXTD=
EXTT0=
EXTT1=
EXTT2=
EXTT3=
EXTT4=
PLAYORDER=
